<svg width="624" height="762" viewBox="0 0 624 762" fill="none" xmlns="http://www.w3.org/2000/svg">
<ellipse cx="155.5" cy="429" rx="155.5" ry="155" fill="#D9D9D9"/>
<rect x="167" y="187.27" width="264.839" height="264.839" transform="rotate(-45 167 187.27)" fill="white"/>
<path d="M624 553L310.5 733.999L310.5 372.001L624 553Z" fill="white"/>
<path d="M34.8203 423.586V421.031H48.3438V423.586H43.1172V438H40.0703V423.586H34.8203ZM56.7906 438.258C52.9469 438.258 50.6031 435.703 50.6031 431.719C50.6031 427.781 52.9937 425.109 56.6266 425.109C59.7437 425.109 62.4391 427.055 62.4391 431.531V432.469H53.5562C53.5914 434.637 54.8687 435.914 56.8141 435.914C58.1266 435.914 59.0172 435.352 59.3922 434.602H62.3219C61.7828 436.805 59.7437 438.258 56.7906 438.258ZM53.5797 430.43H59.5797C59.5562 428.695 58.4078 427.43 56.6734 427.43C54.8687 427.43 53.6734 428.801 53.5797 430.43ZM72.7141 438.258C68.9172 438.258 66.6203 435.539 66.6203 431.695C66.6203 427.805 68.9875 425.109 72.7141 425.109C75.8078 425.109 77.9641 426.914 78.175 429.656H75.3156C75.0812 428.438 74.1906 427.5 72.7375 427.5C70.8859 427.5 69.6437 429.07 69.6437 431.625C69.6437 434.25 70.8625 435.82 72.7375 435.82C74.0734 435.82 75.0578 435.047 75.3156 433.664H78.175C77.9406 436.359 75.9016 438.258 72.7141 438.258ZM85.825 430.547V438H82.825V421.031H85.7547V427.43H85.9188C86.5047 426 87.7234 425.109 89.6922 425.109C92.3406 425.109 94.075 426.82 94.075 429.891V438H91.0984V430.359C91.0984 428.625 90.1609 427.641 88.5906 427.641C86.9734 427.641 85.825 428.695 85.825 430.547ZM102.311 430.547V438H99.3109V425.273H102.17V427.43H102.334C102.92 426 104.209 425.109 106.108 425.109C108.756 425.109 110.491 426.844 110.467 429.891V438H107.491V430.359C107.491 428.648 106.577 427.641 105.006 427.641C103.412 427.641 102.311 428.695 102.311 430.547ZM115.727 438V425.273H118.727V438H115.727ZM117.25 423.469C116.312 423.469 115.516 422.742 115.516 421.828C115.516 420.938 116.312 420.211 117.25 420.211C118.211 420.211 118.984 420.938 118.984 421.828C118.984 422.742 118.211 423.469 117.25 423.469ZM129.541 438.258C125.744 438.258 123.447 435.539 123.447 431.695C123.447 427.805 125.814 425.109 129.541 425.109C132.634 425.109 134.791 426.914 135.002 429.656H132.142C131.908 428.438 131.017 427.5 129.564 427.5C127.713 427.5 126.47 429.07 126.47 431.625C126.47 434.25 127.689 435.82 129.564 435.82C130.9 435.82 131.884 435.047 132.142 433.664H135.002C134.767 436.359 132.728 438.258 129.541 438.258ZM139.066 434.414C139.066 431.555 141.433 430.711 143.8 430.57C144.679 430.512 146.507 430.406 147.058 430.383V429.375C147.058 428.109 146.238 427.383 144.761 427.383C143.425 427.383 142.605 427.992 142.37 428.906H139.488C139.698 426.75 141.644 425.109 144.831 425.109C147.245 425.109 150.034 426.094 150.034 429.492V438H147.175V436.242H147.081C146.519 437.32 145.323 438.258 143.331 438.258C140.894 438.258 139.066 436.922 139.066 434.414ZM141.948 434.391C141.948 435.492 142.839 436.055 144.105 436.055C145.909 436.055 147.081 434.859 147.081 433.43V432.375C146.53 432.41 144.866 432.527 144.269 432.562C142.839 432.68 141.948 433.266 141.948 434.391ZM158.247 421.031V438H155.247V421.031H158.247ZM171.742 421.031H175.492L180.531 433.359H180.742L185.781 421.031H189.531V438H186.602V426.328H186.438L181.727 437.953H179.547L174.836 426.281H174.695V438H171.742V421.031ZM194.345 434.414C194.345 431.555 196.712 430.711 199.08 430.57C199.959 430.512 201.787 430.406 202.337 430.383V429.375C202.337 428.109 201.517 427.383 200.041 427.383C198.705 427.383 197.884 427.992 197.65 428.906H194.767C194.978 426.75 196.923 425.109 200.111 425.109C202.525 425.109 205.314 426.094 205.314 429.492V438H202.455V436.242H202.361C201.798 437.32 200.603 438.258 198.611 438.258C196.173 438.258 194.345 436.922 194.345 434.414ZM197.228 434.391C197.228 435.492 198.119 436.055 199.384 436.055C201.189 436.055 202.361 434.859 202.361 433.43V432.375C201.81 432.41 200.146 432.527 199.548 432.562C198.119 432.68 197.228 433.266 197.228 434.391ZM217.745 428.906C217.558 427.945 216.761 427.336 215.495 427.336C214.206 427.336 213.269 427.969 213.292 428.836C213.269 429.492 213.808 429.984 215.097 430.289L217.253 430.734C219.667 431.273 220.816 432.375 220.839 434.203C220.816 436.594 218.73 438.258 215.402 438.258C212.167 438.258 210.245 436.805 209.941 434.367H212.988C213.175 435.445 214.019 435.984 215.402 435.984C216.831 435.984 217.792 435.398 217.792 434.461C217.792 433.734 217.206 433.266 215.941 432.984L213.902 432.539C211.534 432.07 210.316 430.828 210.316 429C210.316 426.656 212.331 425.109 215.448 425.109C218.495 425.109 220.37 426.586 220.581 428.906H217.745ZM231.864 425.273V427.57H229.356V434.18C229.356 435.398 229.966 435.656 230.716 435.656C231.067 435.656 231.653 435.633 232.028 435.609V438.047C231.677 438.117 231.091 438.164 230.341 438.164C228.091 438.164 226.356 437.062 226.38 434.672V427.57H224.552V425.273H226.38V422.227H229.356V425.273H231.864ZM242.069 438.258C238.225 438.258 235.881 435.703 235.881 431.719C235.881 427.781 238.272 425.109 241.905 425.109C245.022 425.109 247.717 427.055 247.717 431.531V432.469H238.834C238.87 434.637 240.147 435.914 242.092 435.914C243.405 435.914 244.295 435.352 244.67 434.602H247.6C247.061 436.805 245.022 438.258 242.069 438.258ZM238.858 430.43H244.858C244.834 428.695 243.686 427.43 241.952 427.43C240.147 427.43 238.952 428.801 238.858 430.43ZM252.438 438V425.273H255.344V427.383H255.484C255.93 425.93 257.172 425.086 258.625 425.086C258.953 425.086 259.422 425.109 259.703 425.156V427.922C259.445 427.828 258.812 427.734 258.32 427.734C256.656 427.734 255.438 428.883 255.438 430.5V438H252.438ZM266.087 442.781C265.502 442.781 264.916 442.758 264.541 442.711V440.32C264.916 440.344 265.408 440.367 265.806 440.367C266.533 440.367 267.142 440.297 267.658 438.938L267.916 438.258L263.275 425.273H266.439L269.392 434.883H269.533L272.486 425.273H275.65L270.541 439.547C269.814 441.586 268.478 442.781 266.087 442.781Z" fill="#0E0E0E"/>
<path d="M266.57 181V164.031H272.945C276.836 164.031 278.922 166.211 278.922 169.445C278.922 171.754 277.867 173.465 275.875 174.273L279.531 181H276.133L272.805 174.789H269.617V181H266.57ZM269.617 172.234H272.477C274.773 172.234 275.805 171.25 275.805 169.445C275.805 167.641 274.773 166.586 272.477 166.586H269.617V172.234ZM289.267 181.258C285.423 181.258 283.08 178.703 283.08 174.719C283.08 170.781 285.47 168.109 289.103 168.109C292.22 168.109 294.916 170.055 294.916 174.531V175.469H286.033C286.068 177.637 287.345 178.914 289.291 178.914C290.603 178.914 291.494 178.352 291.869 177.602H294.798C294.259 179.805 292.22 181.258 289.267 181.258ZM286.056 173.43H292.056C292.033 171.695 290.884 170.43 289.15 170.43C287.345 170.43 286.15 171.801 286.056 173.43ZM299.05 177.414C299.05 174.555 301.417 173.711 303.784 173.57C304.663 173.512 306.491 173.406 307.042 173.383V172.375C307.042 171.109 306.222 170.383 304.745 170.383C303.409 170.383 302.589 170.992 302.355 171.906H299.472C299.683 169.75 301.628 168.109 304.816 168.109C307.23 168.109 310.019 169.094 310.019 172.492V181H307.159V179.242H307.066C306.503 180.32 305.308 181.258 303.316 181.258C300.878 181.258 299.05 179.922 299.05 177.414ZM301.933 177.391C301.933 178.492 302.823 179.055 304.089 179.055C305.894 179.055 307.066 177.859 307.066 176.43V175.375C306.515 175.41 304.851 175.527 304.253 175.562C302.823 175.68 301.933 176.266 301.933 177.391ZM318.231 164.031V181H315.231V164.031H318.231ZM331.202 172.703V175.164H323.561V172.703H331.202ZM342.883 168.273V170.57H340.375V177.18C340.375 178.398 340.984 178.656 341.734 178.656C342.086 178.656 342.672 178.633 343.047 178.609V181.047C342.695 181.117 342.109 181.164 341.359 181.164C339.109 181.164 337.375 180.062 337.398 177.672V170.57H335.57V168.273H337.398V165.227H340.375V168.273H342.883ZM347.58 181V168.273H350.58V181H347.58ZM349.103 166.469C348.166 166.469 347.369 165.742 347.369 164.828C347.369 163.938 348.166 163.211 349.103 163.211C350.064 163.211 350.838 163.938 350.838 164.828C350.838 165.742 350.064 166.469 349.103 166.469ZM355.839 181V168.273H358.698V170.43H358.863C359.378 168.977 360.667 168.109 362.355 168.109C364.089 168.109 365.308 168.977 365.8 170.43H365.941C366.503 169.023 367.909 168.109 369.761 168.109C372.081 168.109 373.722 169.609 373.722 172.445V181H370.745V172.914C370.745 171.32 369.784 170.617 368.566 170.617C367.089 170.617 366.245 171.625 366.245 173.055V181H363.339V172.797C363.339 171.484 362.448 170.617 361.183 170.617C359.894 170.617 358.839 171.672 358.839 173.266V181H355.839ZM384.63 181.258C380.786 181.258 378.442 178.703 378.442 174.719C378.442 170.781 380.833 168.109 384.466 168.109C387.583 168.109 390.278 170.055 390.278 174.531V175.469H381.395C381.43 177.637 382.708 178.914 384.653 178.914C385.966 178.914 386.856 178.352 387.231 177.602H390.161C389.622 179.805 387.583 181.258 384.63 181.258ZM381.419 173.43H387.419C387.395 171.695 386.247 170.43 384.512 170.43C382.708 170.43 381.512 171.801 381.419 173.43ZM278.008 198.75C277.656 196.711 276.016 195.539 273.953 195.539C271.164 195.539 269.219 197.672 269.219 201.516C269.219 205.406 271.188 207.492 273.953 207.492C275.969 207.492 277.609 206.367 278.008 204.375H281.078C280.609 207.633 277.938 210.234 273.906 210.234C269.43 210.234 266.148 206.977 266.148 201.516C266.148 196.031 269.477 192.797 273.906 192.797C277.656 192.797 280.562 194.977 281.078 198.75H278.008ZM291.517 210.258C287.814 210.258 285.423 207.633 285.423 203.695C285.423 199.734 287.814 197.109 291.517 197.109C295.244 197.109 297.611 199.734 297.611 203.695C297.611 207.633 295.244 210.258 291.517 210.258ZM291.541 207.867C293.58 207.867 294.587 206.016 294.587 203.672C294.587 201.352 293.58 199.477 291.541 199.477C289.455 199.477 288.447 201.352 288.447 203.672C288.447 206.016 289.455 207.867 291.541 207.867ZM305.331 193.031V210H302.331V193.031H305.331ZM313.591 193.031V210H310.591V193.031H313.591ZM318.264 206.414C318.264 203.555 320.631 202.711 322.998 202.57C323.877 202.512 325.705 202.406 326.256 202.383V201.375C326.256 200.109 325.436 199.383 323.959 199.383C322.623 199.383 321.803 199.992 321.569 200.906H318.686C318.897 198.75 320.842 197.109 324.03 197.109C326.444 197.109 329.233 198.094 329.233 201.492V210H326.373V208.242H326.28C325.717 209.32 324.522 210.258 322.53 210.258C320.092 210.258 318.264 208.922 318.264 206.414ZM321.147 206.391C321.147 207.492 322.037 208.055 323.303 208.055C325.108 208.055 326.28 206.859 326.28 205.43V204.375C325.729 204.41 324.065 204.527 323.467 204.562C322.037 204.68 321.147 205.266 321.147 206.391ZM334.586 210V193.031H337.586V199.359H337.703C338.172 198.445 339.086 197.109 341.336 197.109C344.289 197.109 346.609 199.406 346.609 203.648C346.609 207.844 344.336 210.234 341.359 210.234C339.156 210.234 338.172 208.922 337.703 207.984H337.516V210H334.586ZM337.516 203.625C337.516 206.109 338.594 207.773 340.516 207.773C342.508 207.773 343.562 206.039 343.562 203.625C343.562 201.258 342.531 199.547 340.516 199.547C338.594 199.547 337.516 201.164 337.516 203.625ZM356.908 210.258C353.205 210.258 350.814 207.633 350.814 203.695C350.814 199.734 353.205 197.109 356.908 197.109C360.634 197.109 363.002 199.734 363.002 203.695C363.002 207.633 360.634 210.258 356.908 210.258ZM356.931 207.867C358.97 207.867 359.978 206.016 359.978 203.672C359.978 201.352 358.97 199.477 356.931 199.477C354.845 199.477 353.838 201.352 353.838 203.672C353.838 206.016 354.845 207.867 356.931 207.867ZM367.722 210V197.273H370.628V199.383H370.769C371.214 197.93 372.456 197.086 373.909 197.086C374.238 197.086 374.706 197.109 374.988 197.156V199.922C374.73 199.828 374.097 199.734 373.605 199.734C371.941 199.734 370.722 200.883 370.722 202.5V210H367.722ZM378.348 206.414C378.348 203.555 380.716 202.711 383.083 202.57C383.962 202.512 385.79 202.406 386.341 202.383V201.375C386.341 200.109 385.52 199.383 384.044 199.383C382.708 199.383 381.887 199.992 381.653 200.906H378.77C378.981 198.75 380.927 197.109 384.114 197.109C386.528 197.109 389.317 198.094 389.317 201.492V210H386.458V208.242H386.364C385.802 209.32 384.606 210.258 382.614 210.258C380.177 210.258 378.348 208.922 378.348 206.414ZM381.231 206.391C381.231 207.492 382.122 208.055 383.387 208.055C385.192 208.055 386.364 206.859 386.364 205.43V204.375C385.813 204.41 384.149 204.527 383.552 204.562C382.122 204.68 381.231 205.266 381.231 206.391ZM400.881 197.273V199.57H398.373V206.18C398.373 207.398 398.983 207.656 399.733 207.656C400.084 207.656 400.67 207.633 401.045 207.609V210.047C400.694 210.117 400.108 210.164 399.358 210.164C397.108 210.164 395.373 209.062 395.397 206.672V199.57H393.569V197.273H395.397V194.227H398.373V197.273H400.881ZM405.578 210V197.273H408.578V210H405.578ZM407.102 195.469C406.164 195.469 405.367 194.742 405.367 193.828C405.367 192.938 406.164 192.211 407.102 192.211C408.062 192.211 408.836 192.938 408.836 193.828C408.836 194.742 408.062 195.469 407.102 195.469ZM419.392 210.258C415.689 210.258 413.298 207.633 413.298 203.695C413.298 199.734 415.689 197.109 419.392 197.109C423.119 197.109 425.486 199.734 425.486 203.695C425.486 207.633 423.119 210.258 419.392 210.258ZM419.416 207.867C421.455 207.867 422.462 206.016 422.462 203.672C422.462 201.352 421.455 199.477 419.416 199.477C417.33 199.477 416.322 201.352 416.322 203.672C416.322 206.016 417.33 207.867 419.416 207.867ZM433.206 202.547V210H430.206V197.273H433.066V199.43H433.23C433.816 198 435.105 197.109 437.003 197.109C439.652 197.109 441.386 198.844 441.363 201.891V210H438.386V202.359C438.386 200.648 437.472 199.641 435.902 199.641C434.308 199.641 433.206 200.695 433.206 202.547Z" fill="#0E0E0E"/>
<path d="M349.57 561V544.031H355.945C359.836 544.031 361.922 546.398 361.922 549.656C361.922 552.914 359.812 555.258 355.898 555.258H352.617V561H349.57ZM352.617 552.75H355.477C357.773 552.75 358.805 551.461 358.805 549.656C358.805 547.828 357.773 546.586 355.477 546.586H352.617V552.75ZM366.642 561V548.273H369.548V550.383H369.689C370.134 548.93 371.377 548.086 372.83 548.086C373.158 548.086 373.627 548.109 373.908 548.156V550.922C373.65 550.828 373.017 550.734 372.525 550.734C370.861 550.734 369.642 551.883 369.642 553.5V561H366.642ZM383.222 561.258C379.519 561.258 377.128 558.633 377.128 554.695C377.128 550.734 379.519 548.109 383.222 548.109C386.948 548.109 389.316 550.734 389.316 554.695C389.316 558.633 386.948 561.258 383.222 561.258ZM383.245 558.867C385.284 558.867 386.292 557.016 386.292 554.672C386.292 552.352 385.284 550.477 383.245 550.477C381.159 550.477 380.152 552.352 380.152 554.672C380.152 557.016 381.159 558.867 383.245 558.867ZM394.036 548.273H397.036V561.727C397.036 564.469 395.419 565.781 392.606 565.781C392.419 565.781 392.231 565.781 391.997 565.758V563.32C392.161 563.344 392.302 563.344 392.442 563.344C393.591 563.344 394.036 562.758 394.036 561.703V548.273ZM395.536 546.469C394.598 546.469 393.802 545.742 393.802 544.828C393.802 543.938 394.598 543.211 395.536 543.211C396.497 543.211 397.27 543.938 397.27 544.828C397.27 545.742 396.497 546.469 395.536 546.469ZM407.944 561.258C404.1 561.258 401.756 558.703 401.756 554.719C401.756 550.781 404.147 548.109 407.78 548.109C410.897 548.109 413.592 550.055 413.592 554.531V555.469H404.709C404.745 557.637 406.022 558.914 407.967 558.914C409.28 558.914 410.17 558.352 410.545 557.602H413.475C412.936 559.805 410.897 561.258 407.944 561.258ZM404.733 553.43H410.733C410.709 551.695 409.561 550.43 407.827 550.43C406.022 550.43 404.827 551.801 404.733 553.43ZM423.867 561.258C420.07 561.258 417.773 558.539 417.773 554.695C417.773 550.805 420.141 548.109 423.867 548.109C426.961 548.109 429.117 549.914 429.328 552.656H426.469C426.234 551.438 425.344 550.5 423.891 550.5C422.039 550.5 420.797 552.07 420.797 554.625C420.797 557.25 422.016 558.82 423.891 558.82C425.227 558.82 426.211 558.047 426.469 556.664H429.328C429.094 559.359 427.055 561.258 423.867 561.258ZM440.33 548.273V550.57H437.822V557.18C437.822 558.398 438.431 558.656 439.181 558.656C439.533 558.656 440.119 558.633 440.494 558.609V561.047C440.142 561.117 439.556 561.164 438.806 561.164C436.556 561.164 434.822 560.062 434.845 557.672V550.57H433.017V548.273H434.845V545.227H437.822V548.273H440.33ZM452.512 546.586V544.031H466.036V546.586H460.809V561H457.762V546.586H452.512ZM470.686 561V548.273H473.686V561H470.686ZM472.209 546.469C471.272 546.469 470.475 545.742 470.475 544.828C470.475 543.938 471.272 543.211 472.209 543.211C473.17 543.211 473.944 543.938 473.944 544.828C473.944 545.742 473.17 546.469 472.209 546.469ZM478.945 561V548.273H481.805V550.43H481.969C482.484 548.977 483.773 548.109 485.461 548.109C487.195 548.109 488.414 548.977 488.906 550.43H489.047C489.609 549.023 491.016 548.109 492.867 548.109C495.188 548.109 496.828 549.609 496.828 552.445V561H493.852V552.914C493.852 551.32 492.891 550.617 491.672 550.617C490.195 550.617 489.352 551.625 489.352 553.055V561H486.445V552.797C486.445 551.484 485.555 550.617 484.289 550.617C483 550.617 481.945 551.672 481.945 553.266V561H478.945ZM507.736 561.258C503.892 561.258 501.548 558.703 501.548 554.719C501.548 550.781 503.939 548.109 507.572 548.109C510.689 548.109 513.384 550.055 513.384 554.531V555.469H504.502C504.537 557.637 505.814 558.914 507.759 558.914C509.072 558.914 509.962 558.352 510.337 557.602H513.267C512.728 559.805 510.689 561.258 507.736 561.258ZM504.525 553.43H510.525C510.502 551.695 509.353 550.43 507.619 550.43C505.814 550.43 504.619 551.801 504.525 553.43ZM521.105 544.031V561H518.105V544.031H521.105ZM526.364 561V548.273H529.364V561H526.364ZM527.887 546.469C526.95 546.469 526.153 545.742 526.153 544.828C526.153 543.938 526.95 543.211 527.887 543.211C528.848 543.211 529.622 543.938 529.622 544.828C529.622 545.742 528.848 546.469 527.887 546.469ZM537.623 553.547V561H534.623V548.273H537.483V550.43H537.647C538.233 549 539.522 548.109 541.42 548.109C544.069 548.109 545.803 549.844 545.78 552.891V561H542.803V553.359C542.803 551.648 541.889 550.641 540.319 550.641C538.725 550.641 537.623 551.695 537.623 553.547ZM556.688 561.258C552.844 561.258 550.5 558.703 550.5 554.719C550.5 550.781 552.891 548.109 556.523 548.109C559.641 548.109 562.336 550.055 562.336 554.531V555.469H553.453C553.488 557.637 554.766 558.914 556.711 558.914C558.023 558.914 558.914 558.352 559.289 557.602H562.219C561.68 559.805 559.641 561.258 556.688 561.258ZM553.477 553.43H559.477C559.453 551.695 558.305 550.43 556.57 550.43C554.766 550.43 553.57 551.801 553.477 553.43ZM574.275 551.906C574.087 550.945 573.291 550.336 572.025 550.336C570.736 550.336 569.798 550.969 569.822 551.836C569.798 552.492 570.337 552.984 571.627 553.289L573.783 553.734C576.197 554.273 577.345 555.375 577.369 557.203C577.345 559.594 575.259 561.258 571.931 561.258C568.697 561.258 566.775 559.805 566.47 557.367H569.517C569.705 558.445 570.548 558.984 571.931 558.984C573.361 558.984 574.322 558.398 574.322 557.461C574.322 556.734 573.736 556.266 572.47 555.984L570.431 555.539C568.064 555.07 566.845 553.828 566.845 552C566.845 549.656 568.861 548.109 571.978 548.109C575.025 548.109 576.9 549.586 577.111 551.906H574.275Z" fill="#0E0E0E"/>
</svg>
