<svg width="19" height="25" viewBox="0 0 19 25" fill="none" xmlns="http://www.w3.org/2000/svg">
<g id="Frame" clip-path="url(#clip0_56_71)">
<g id="Group">
<path id="Vector" d="M0 24.985C0 16.6471 0 8.34815 0 0.0271364C0.101833 0.0200061 0.195883 0.00769018 0.289284 0.00704198C3.35855 0.00639377 6.42782 -0.0137006 9.49643 0.0154687C11.2762 0.032322 12.9153 0.530792 14.3371 1.65284C16.9951 3.74913 17.4096 7.58133 15.2503 10.1878C15.1628 10.2934 15.0642 10.39 15.022 10.4347C15.6706 10.9423 16.3711 11.3831 16.9406 11.9541C19.3918 14.4115 19.6862 18.4038 17.6561 21.2189C16.2356 23.1882 14.2703 24.3258 11.9164 24.7594C10.9059 24.9455 9.85707 24.9792 8.82511 24.9889C6.00492 25.0142 3.18407 24.9902 0.363875 24.9856C0.248421 24.985 0.132967 24.985 0 24.985ZM3.82166 3.76145C4.06554 3.99869 4.29191 4.1951 4.4865 4.41873C4.57536 4.5205 4.64995 4.67607 4.6506 4.80701C4.65838 9.8293 4.64801 14.8516 4.66876 19.8733C4.67136 20.4839 4.62011 20.9966 4.01949 21.2987C4.0156 21.3006 4.01884 21.3168 4.01884 21.3531C4.05387 21.357 4.09149 21.3648 4.12911 21.3648C5.41532 21.3602 6.70088 21.3641 7.9871 21.3473C8.83938 21.3363 9.6988 21.3583 10.5414 21.2552C11.9184 21.086 13.1229 20.5104 14.0673 19.4623C15.2341 18.1665 15.4825 16.4034 14.675 15.0013C13.957 13.7548 12.8109 13.0865 11.4358 12.872C10.4934 12.7248 9.52367 12.7521 8.56566 12.708C8.27897 12.695 7.99164 12.706 7.70819 12.706C7.70819 11.4881 7.70819 10.3284 7.70819 9.14609C8.38405 9.14609 9.03137 9.15971 9.67805 9.1422C10.3578 9.12405 10.9986 8.93997 11.5791 8.5828C13.309 7.52104 13.3038 5.4241 11.5714 4.37011C10.8994 3.9611 10.1548 3.79386 9.37968 3.78349C7.79121 3.76339 6.20274 3.76728 4.61363 3.76145C4.36975 3.76015 4.12587 3.76145 3.82166 3.76145Z" fill="white"/>
</g>
</g>
<defs>
<clipPath id="clip0_56_71">
<rect width="19" height="25" fill="white"/>
</clipPath>
</defs>
</svg>
