<svg width="1116" height="294" viewBox="0 0 1116 294" fill="none" xmlns="http://www.w3.org/2000/svg">
<circle cx="147" cy="147" r="146.5" stroke="white"/>
<path d="M925.562 142V127.859H930.367C933.688 127.859 935.191 129.832 935.191 132.352C935.191 134.852 933.688 136.863 930.387 136.863H927.32V142H925.562ZM927.32 135.301H930.309C932.555 135.301 933.453 134.031 933.453 132.352C933.453 130.652 932.555 129.422 930.289 129.422H927.32V135.301ZM939.652 127.859H941.762L946.527 139.5H946.703L951.469 127.859H953.578V142H951.918V131.316H951.781L947.387 142H945.824L941.43 131.316H941.312V142H939.652V127.859ZM958.703 142V127.859H967.219V129.422H960.461V134.148H966.574V135.691H960.461V142H958.703ZM986.961 127.352C986.941 131.707 983.836 134.832 978.836 136.258L978.191 135.047C982.342 133.875 984.988 131.57 985.32 128.621H979.09V127.352H986.961ZM992.391 126.238V136.141H990.848V132H987V130.711H990.848V126.238H992.391ZM992.391 136.883V143.348H981.121V136.883H992.391ZM982.605 138.113V142.098H990.867V138.113H982.605ZM1013.1 134.48V135.75H997.281V134.48H1013.1ZM1005.19 137.273C1008.92 137.273 1011.15 138.426 1011.17 140.418C1011.15 142.43 1008.92 143.543 1005.19 143.543C1001.44 143.543 999.195 142.43 999.195 140.418C999.195 138.426 1001.44 137.273 1005.19 137.273ZM1005.19 138.484C1002.4 138.504 1000.74 139.188 1000.76 140.418C1000.74 141.629 1002.4 142.312 1005.19 142.312C1007.95 142.312 1009.62 141.629 1009.62 140.418C1009.62 139.188 1007.95 138.504 1005.19 138.484ZM1011.7 127.117V128.387H1006.19C1006.25 130.359 1009.14 131.863 1012.22 132.215L1011.66 133.445C1008.81 133.084 1006.15 131.814 1005.19 129.871C1004.24 131.814 1001.59 133.084 998.727 133.445L998.18 132.215C1001.21 131.863 1004.12 130.359 1004.2 128.387H998.727V127.117H1011.7Z" fill="white"/>
<path d="M631.82 132.859H633.578V142.215C633.578 145.125 631.41 147.254 628.07 147.254C624.73 147.254 622.562 145.125 622.562 142.215V132.859H624.32V142.078C624.32 144.129 625.746 145.613 628.07 145.613C630.414 145.613 631.82 144.129 631.82 142.078V132.859ZM644.387 139.148C644.152 138.27 643.488 137.684 642.238 137.684C640.93 137.684 639.992 138.387 639.992 139.285C639.992 139.988 640.559 140.477 641.809 140.77L643.391 141.16C645.285 141.609 646.223 142.547 646.223 144.031C646.223 145.867 644.719 147.215 642.062 147.215C639.68 147.215 638.254 146.16 637.98 144.227H639.738C639.934 145.262 640.695 145.75 642.023 145.75C643.527 145.75 644.484 145.125 644.484 144.129C644.484 143.387 643.957 142.879 642.746 142.605L641.145 142.234C639.289 141.805 638.312 140.789 638.312 139.383C638.312 137.566 639.895 136.258 642.238 136.258C644.426 136.258 645.812 137.43 646.027 139.148H644.387ZM654.863 147.215C651.797 147.215 649.902 145.047 649.902 141.785C649.902 138.523 651.816 136.258 654.707 136.258C656.934 136.258 659.277 137.625 659.277 141.551V142.254H651.582C651.66 144.5 652.969 145.73 654.863 145.73C656.133 145.73 656.934 145.184 657.324 144.52H659.121C658.613 146.121 657.051 147.215 654.863 147.215ZM651.602 140.828H657.578C657.578 139.051 656.445 137.742 654.707 137.742C652.871 137.742 651.699 139.188 651.602 140.828ZM663.465 147V136.395H665.086V138.016H665.203C665.594 136.941 666.688 136.219 667.938 136.219C668.191 136.219 668.621 136.238 668.816 136.258V137.957C668.699 137.918 668.23 137.84 667.801 137.84C666.277 137.84 665.145 138.895 665.145 140.32V147H663.465ZM679.477 147V136.395H681.098V138.016H681.215C681.605 136.941 682.699 136.219 683.949 136.219C684.203 136.219 684.633 136.238 684.828 136.258V137.957C684.711 137.918 684.242 137.84 683.812 137.84C682.289 137.84 681.156 138.895 681.156 140.32V147H679.477ZM692.57 147.215C689.504 147.215 687.609 145.047 687.609 141.785C687.609 138.523 689.523 136.258 692.414 136.258C694.641 136.258 696.984 137.625 696.984 141.551V142.254H689.289C689.367 144.5 690.676 145.73 692.57 145.73C693.84 145.73 694.641 145.184 695.031 144.52H696.828C696.32 146.121 694.758 147.215 692.57 147.215ZM689.309 140.828H695.285C695.285 139.051 694.152 137.742 692.414 137.742C690.578 137.742 689.406 139.188 689.309 140.828ZM707.07 139.148C706.836 138.27 706.172 137.684 704.922 137.684C703.613 137.684 702.676 138.387 702.676 139.285C702.676 139.988 703.242 140.477 704.492 140.77L706.074 141.16C707.969 141.609 708.906 142.547 708.906 144.031C708.906 145.867 707.402 147.215 704.746 147.215C702.363 147.215 700.938 146.16 700.664 144.227H702.422C702.617 145.262 703.379 145.75 704.707 145.75C706.211 145.75 707.168 145.125 707.168 144.129C707.168 143.387 706.641 142.879 705.43 142.605L703.828 142.234C701.973 141.805 700.996 140.789 700.996 139.383C700.996 137.566 702.578 136.258 704.922 136.258C707.109 136.258 708.496 137.43 708.711 139.148H707.07ZM717.547 147.215C714.48 147.215 712.586 145.047 712.586 141.785C712.586 138.523 714.5 136.258 717.391 136.258C719.617 136.258 721.961 137.625 721.961 141.551V142.254H714.266C714.344 144.5 715.652 145.73 717.547 145.73C718.816 145.73 719.617 145.184 720.008 144.52H721.805C721.297 146.121 719.734 147.215 717.547 147.215ZM714.285 140.828H720.262C720.262 139.051 719.129 137.742 717.391 137.742C715.555 137.742 714.383 139.188 714.285 140.828ZM725.641 143.992C725.641 141.551 727.789 141.004 729.625 140.867C730.299 140.818 732.018 140.73 732.496 140.711V139.852C732.496 138.504 731.695 137.723 730.094 137.723C728.746 137.723 727.945 138.348 727.711 139.148H725.953C726.168 137.449 727.828 136.258 730.172 136.258C731.559 136.258 734.156 136.668 734.156 140.008V147H732.496V145.555H732.418C732.066 146.277 731.09 147.254 729.254 147.254C727.242 147.254 725.641 146.062 725.641 143.992ZM727.32 144.07C727.32 145.184 728.258 145.75 729.547 145.75C731.441 145.75 732.496 144.48 732.496 143.152V142.078C731.998 142.117 730.328 142.244 729.82 142.273C728.297 142.371 727.32 142.918 727.32 144.07ZM738.852 147V136.395H740.473V138.016H740.59C740.98 136.941 742.074 136.219 743.324 136.219C743.578 136.219 744.008 136.238 744.203 136.258V137.957C744.086 137.918 743.617 137.84 743.188 137.84C741.664 137.84 740.531 138.895 740.531 140.32V147H738.852ZM751.828 147.215C748.82 147.215 746.984 144.93 746.984 141.746C746.984 138.523 748.898 136.258 751.789 136.258C754.055 136.258 755.734 137.586 756.008 139.598H754.328C754.094 138.621 753.234 137.742 751.828 137.742C749.934 137.742 748.664 139.305 748.664 141.688C748.664 144.148 749.895 145.711 751.828 145.711C753.078 145.711 754.035 145.047 754.328 143.875H756.008C755.734 145.77 754.191 147.215 751.828 147.215ZM761.758 140.633V147H760.078V132.859H761.758V138.055H761.895C762.383 136.961 763.34 136.258 765.02 136.258C767.188 136.258 768.633 137.547 768.633 140.262V147H766.953V140.379C766.953 138.719 766.035 137.762 764.512 137.762C762.93 137.762 761.758 138.797 761.758 140.633Z" fill="white"/>
<path d="M68.5625 147V132.859H73.5234C76.4922 132.859 77.8789 134.52 77.8789 136.609C77.8789 138.426 76.8047 139.246 75.5742 139.578V139.715C76.8828 139.793 78.4453 141.004 78.4453 143.25C78.4453 145.379 77.0391 147 73.6992 147H68.5625ZM73.6797 145.438C75.8867 145.438 76.7461 144.461 76.7461 143.23C76.7461 141.785 75.5938 140.574 73.7773 140.574H70.3203V145.438H73.6797ZM73.4648 139.051C74.9883 139.051 76.1992 138.113 76.1992 136.629C76.1992 135.398 75.3789 134.422 73.5234 134.422H70.3203V139.051H73.4648ZM82.7305 147V136.395H84.3516V138.016H84.4688C84.8594 136.941 85.9531 136.219 87.2031 136.219C87.457 136.219 87.8867 136.238 88.082 136.258V137.957C87.9648 137.918 87.4961 137.84 87.0664 137.84C85.543 137.84 84.4102 138.895 84.4102 140.32V147H82.7305ZM91.1953 143.992C91.1953 141.551 93.3438 141.004 95.1797 140.867C95.8535 140.818 97.5723 140.73 98.0508 140.711V139.852C98.0508 138.504 97.25 137.723 95.6484 137.723C94.3008 137.723 93.5 138.348 93.2656 139.148H91.5078C91.7227 137.449 93.3828 136.258 95.7266 136.258C97.1133 136.258 99.7109 136.668 99.7109 140.008V147H98.0508V145.555H97.9727C97.6211 146.277 96.6445 147.254 94.8086 147.254C92.7969 147.254 91.1953 146.062 91.1953 143.992ZM92.875 144.07C92.875 145.184 93.8125 145.75 95.1016 145.75C96.9961 145.75 98.0508 144.48 98.0508 143.152V142.078C97.5527 142.117 95.8828 142.244 95.375 142.273C93.8516 142.371 92.875 142.918 92.875 144.07ZM106.086 140.633V147H104.406V136.395H106.027V138.055H106.164C106.672 136.98 107.648 136.258 109.27 136.258C111.418 136.258 112.844 137.566 112.844 140.262V147H111.164V140.379C111.164 138.738 110.266 137.762 108.762 137.762C107.219 137.762 106.086 138.797 106.086 140.633ZM121.543 147.215C118.906 147.215 117.031 145.086 117.031 141.727C117.031 138.367 118.906 136.258 121.562 136.258C123.613 136.258 124.277 137.508 124.629 138.074H124.746V132.859H126.445V147H124.805V145.379H124.629C124.258 145.965 123.574 147.215 121.543 147.215ZM121.777 145.711C123.711 145.711 124.805 144.07 124.805 141.688C124.805 139.344 123.75 137.762 121.777 137.762C119.746 137.762 118.73 139.48 118.73 141.688C118.73 143.953 119.766 145.711 121.777 145.711ZM146.305 136.414C146.148 135.027 144.879 134.227 143.18 134.227C141.305 134.227 140.074 135.203 140.074 136.551C140.074 138.035 141.734 138.582 142.809 138.855L144.215 139.246C145.738 139.637 148.219 140.516 148.219 143.152C148.219 145.457 146.363 147.254 143.082 147.254C140.035 147.254 138.141 145.672 137.984 143.328H139.781C139.938 144.91 141.402 145.652 143.082 145.652C145.035 145.652 146.5 144.656 146.5 143.113C146.5 141.746 145.191 141.219 143.707 140.789L141.969 140.32C139.742 139.676 138.375 138.543 138.375 136.629C138.375 134.246 140.504 132.664 143.238 132.664C145.973 132.664 147.945 134.266 148.023 136.414H146.305ZM157.152 136.395V137.801H154.926V143.953C154.926 145.32 155.59 145.535 156.312 145.535C156.625 145.535 157.055 145.516 157.309 145.496V147.059C157.055 147.098 156.625 147.137 156.137 147.137C154.73 147.137 153.227 146.258 153.227 144.383V137.801H151.625V136.395H153.227V133.855H154.926V136.395H157.152ZM161.32 147V136.395H162.941V138.016H163.059C163.449 136.941 164.543 136.219 165.793 136.219C166.047 136.219 166.477 136.238 166.672 136.258V137.957C166.555 137.918 166.086 137.84 165.656 137.84C164.133 137.84 163 138.895 163 140.32V147H161.32ZM169.785 143.992C169.785 141.551 171.934 141.004 173.77 140.867C174.443 140.818 176.162 140.73 176.641 140.711V139.852C176.641 138.504 175.84 137.723 174.238 137.723C172.891 137.723 172.09 138.348 171.855 139.148H170.098C170.312 137.449 171.973 136.258 174.316 136.258C175.703 136.258 178.301 136.668 178.301 140.008V147H176.641V145.555H176.562C176.211 146.277 175.234 147.254 173.398 147.254C171.387 147.254 169.785 146.062 169.785 143.992ZM171.465 144.07C171.465 145.184 172.402 145.75 173.691 145.75C175.586 145.75 176.641 144.48 176.641 143.152V142.078C176.143 142.117 174.473 142.244 173.965 142.273C172.441 142.371 171.465 142.918 171.465 144.07ZM187.625 136.395V137.801H185.398V143.953C185.398 145.32 186.062 145.535 186.785 145.535C187.098 145.535 187.527 145.516 187.781 145.496V147.059C187.527 147.098 187.098 147.137 186.609 147.137C185.203 147.137 183.699 146.258 183.699 144.383V137.801H182.098V136.395H183.699V133.855H185.398V136.395H187.625ZM196.129 147.215C193.062 147.215 191.168 145.047 191.168 141.785C191.168 138.523 193.082 136.258 195.973 136.258C198.199 136.258 200.543 137.625 200.543 141.551V142.254H192.848C192.926 144.5 194.234 145.73 196.129 145.73C197.398 145.73 198.199 145.184 198.59 144.52H200.387C199.879 146.121 198.316 147.215 196.129 147.215ZM192.867 140.828H198.844C198.844 139.051 197.711 137.742 195.973 137.742C194.137 137.742 192.965 139.188 192.867 140.828ZM209.027 151.199C206.469 151.199 204.73 150.086 204.535 148.113H206.293C206.527 149.188 207.523 149.734 209.027 149.734C210.844 149.734 211.957 148.953 211.957 147.195V145.047H211.82C211.469 145.633 210.785 146.844 208.734 146.844C206.156 146.844 204.223 144.891 204.223 141.551C204.223 138.289 206.098 136.258 208.754 136.258C210.805 136.258 211.469 137.508 211.859 138.074H211.996V136.395H213.637V147.293C213.637 150.027 211.605 151.199 209.027 151.199ZM208.969 145.34C210.902 145.34 211.996 143.953 211.996 141.609C211.996 139.344 210.941 137.762 208.969 137.762C206.938 137.762 205.922 139.48 205.922 141.609C205.922 143.816 206.957 145.34 208.969 145.34ZM219.387 150.984C219.016 150.984 218.664 150.965 218.449 150.945V149.441C218.625 149.461 219.016 149.48 219.27 149.48C219.953 149.48 220.52 149.422 221.086 147.879L221.398 147.078L217.473 136.395H219.309L222.199 144.812H222.316L225.207 136.395H227.043L222.551 148.523C221.926 150.184 220.891 150.984 219.387 150.984Z" fill="white"/>
<path d="M346.562 147V132.859H351.523C354.492 132.859 355.879 134.52 355.879 136.609C355.879 138.426 354.805 139.246 353.574 139.578V139.715C354.883 139.793 356.445 141.004 356.445 143.25C356.445 145.379 355.039 147 351.699 147H346.562ZM351.68 145.438C353.887 145.438 354.746 144.461 354.746 143.23C354.746 141.785 353.594 140.574 351.777 140.574H348.32V145.438H351.68ZM351.465 139.051C352.988 139.051 354.199 138.113 354.199 136.629C354.199 135.398 353.379 134.422 351.523 134.422H348.32V139.051H351.465ZM360.73 147V136.395H362.352V138.016H362.469C362.859 136.941 363.953 136.219 365.203 136.219C365.457 136.219 365.887 136.238 366.082 136.258V137.957C365.965 137.918 365.496 137.84 365.066 137.84C363.543 137.84 362.41 138.895 362.41 140.32V147H360.73ZM369.195 143.992C369.195 141.551 371.344 141.004 373.18 140.867C373.854 140.818 375.572 140.73 376.051 140.711V139.852C376.051 138.504 375.25 137.723 373.648 137.723C372.301 137.723 371.5 138.348 371.266 139.148H369.508C369.723 137.449 371.383 136.258 373.727 136.258C375.113 136.258 377.711 136.668 377.711 140.008V147H376.051V145.555H375.973C375.621 146.277 374.645 147.254 372.809 147.254C370.797 147.254 369.195 146.062 369.195 143.992ZM370.875 144.07C370.875 145.184 371.812 145.75 373.102 145.75C374.996 145.75 376.051 144.48 376.051 143.152V142.078C375.553 142.117 373.883 142.244 373.375 142.273C371.852 142.371 370.875 142.918 370.875 144.07ZM384.086 140.633V147H382.406V136.395H384.027V138.055H384.164C384.672 136.98 385.648 136.258 387.27 136.258C389.418 136.258 390.844 137.566 390.844 140.262V147H389.164V140.379C389.164 138.738 388.266 137.762 386.762 137.762C385.219 137.762 384.086 138.797 384.086 140.633ZM399.543 147.215C396.906 147.215 395.031 145.086 395.031 141.727C395.031 138.367 396.906 136.258 399.562 136.258C401.613 136.258 402.277 137.508 402.629 138.074H402.746V132.859H404.445V147H402.805V145.379H402.629C402.258 145.965 401.574 147.215 399.543 147.215ZM399.777 145.711C401.711 145.711 402.805 144.07 402.805 141.688C402.805 139.344 401.75 137.762 399.777 137.762C397.746 137.762 396.73 139.48 396.73 141.688C396.73 143.953 397.766 145.711 399.777 145.711ZM418.348 132.859V147H416.59V132.859H418.348ZM427.262 147.215C424.625 147.215 422.75 145.086 422.75 141.727C422.75 138.367 424.625 136.258 427.281 136.258C429.332 136.258 429.996 137.508 430.348 138.074H430.465V132.859H432.164V147H430.523V145.379H430.348C429.977 145.965 429.293 147.215 427.262 147.215ZM427.496 145.711C429.43 145.711 430.523 144.07 430.523 141.688C430.523 139.344 429.469 137.762 427.496 137.762C425.465 137.762 424.449 139.48 424.449 141.688C424.449 143.953 425.484 145.711 427.496 145.711ZM441.527 147.215C438.461 147.215 436.566 145.047 436.566 141.785C436.566 138.523 438.48 136.258 441.371 136.258C443.598 136.258 445.941 137.625 445.941 141.551V142.254H438.246C438.324 144.5 439.633 145.73 441.527 145.73C442.797 145.73 443.598 145.184 443.988 144.52H445.785C445.277 146.121 443.715 147.215 441.527 147.215ZM438.266 140.828H444.242C444.242 139.051 443.109 137.742 441.371 137.742C439.535 137.742 438.363 139.188 438.266 140.828ZM451.809 140.633V147H450.129V136.395H451.75V138.055H451.887C452.395 136.98 453.371 136.258 454.992 136.258C457.141 136.258 458.566 137.566 458.566 140.262V147H456.887V140.379C456.887 138.738 455.988 137.762 454.484 137.762C452.941 137.762 451.809 138.797 451.809 140.633ZM467.891 136.395V137.801H465.664V143.953C465.664 145.32 466.328 145.535 467.051 145.535C467.363 145.535 467.793 145.516 468.047 145.496V147.059C467.793 147.098 467.363 147.137 466.875 147.137C465.469 147.137 463.965 146.258 463.965 144.383V137.801H462.363V136.395H463.965V133.855H465.664V136.395H467.891ZM472.059 147V136.395H473.738V147H472.059ZM472.898 134.637C472.254 134.637 471.727 134.148 471.727 133.523C471.727 132.898 472.254 132.41 472.898 132.41C473.543 132.41 474.09 132.898 474.09 133.523C474.09 134.148 473.543 134.637 472.898 134.637ZM483.043 136.395V137.801H480.816V143.953C480.816 145.32 481.48 145.535 482.203 145.535C482.516 145.535 482.945 145.516 483.199 145.496V147.059C482.945 147.098 482.516 147.137 482.027 147.137C480.621 147.137 479.117 146.258 479.117 144.383V137.801H477.516V136.395H479.117V133.855H480.816V136.395H483.043ZM488.285 150.984C487.914 150.984 487.562 150.965 487.348 150.945V149.441C487.523 149.461 487.914 149.48 488.168 149.48C488.852 149.48 489.418 149.422 489.984 147.879L490.297 147.078L486.371 136.395H488.207L491.098 144.812H491.215L494.105 136.395H495.941L491.449 148.523C490.824 150.184 489.789 150.984 488.285 150.984Z" fill="white"/>
<circle cx="421" cy="147" r="146.5" stroke="white"/>
<circle cx="695" cy="147" r="146.5" stroke="white"/>
<circle cx="969" cy="147" r="146.5" stroke="white"/>
</svg>
